# xmcd CD database file
#
# Track frame offsets:
#	150
#	22734
#	36681
#	58988
#	83240
#
# Disc length: 1411 seconds
#
# Revision: 0
# Processed by: cddbd v1.5PL3 Copyright (c) Steve Scherf et al.
# Submitted via: CDex 1.51
#
DISCID=3d058105
DTITLE=いとうかなこ - パズル
DYEAR=2004
DGENRE=Japanese Pop
TTITLE0=パズル
TTITLE1=渇走
TTITLE2=星の海より
TTITLE3=ガラスのくつ
TTITLE4=BLAZE UP
EXTD=YEAR: 2004
EXTT0=
EXTT1=
EXTT2=
EXTT3=
EXTT4=
PLAYORDER=
